{
  "asset": {
    "version": "2.0",
    "generator": "THREE.GLTFExporter"
  },
  "scenes": [
    {
      "name": "Scene",
      "nodes": [
        3
      ]
    }
  ],
  "scene": 0,
  "nodes": [
    {
      "matrix": [
        1,
        0,
        0,
        0,
        0,
        0.00006038760391646747,
        1.000000133443102,
        0,
        0,
        -1.000000133443102,
        0.00006038760391646747,
        0,
        -0.8575186729431152,
        1.0436326265335083,
        1.6254037618637085,
        1
      ],
      "name": "Ryan",
      "extras": {
        "name": "Ryan"
      },
      "mesh": 0
    },
    {
      "matrix": [
        1,
        0,
        0,
        0,
        0,
        0.00006038760391646747,
        1.000000133443102,
        0,
        0,
        -1.000000133443102,
        0.00006038760391646747,
        0,
        -0.9491267204284668,
        0.1558896005153656,
        1.625457525253296,
        1
      ],
      "name": "Developer",
      "extras": {
        "name": "Developer"
      },
      "mesh": 1
    },
    {
      "matrix": [
        0.737960696220398,
        0,
        0,
        0,
        0,
        0.00004456368182865965,
        0.737960854300815,
        0,
        0,
        -0.7379607946961624,
        0.00004456367822927796,
        0,
        -0.2626238167285919,
        0.5817384719848633,
        1.6254316568374634,
        1
      ],
      "name": "the",
      "extras": {
        "name": "the"
      },
      "mesh": 2
    },
    {
      "name": "black-logo.gltf",
      "children": [
        0,
        1,
        2
      ]
    }
  ],
  "bufferViews": [
    {
      "buffer": 0,
      "byteOffset": 0,
      "byteLength": 237480,
      "target": 34962,
      "byteStride": 12
    },
    {
      "buffer": 0,
      "byteOffset": 237480,
      "byteLength": 237480,
      "target": 34962,
      "byteStride": 12
    },
    {
      "buffer": 0,
      "byteOffset": 474960,
      "byteLength": 158320,
      "target": 34962,
      "byteStride": 8
    },
    {
      "buffer": 0,
      "byteOffset": 633280,
      "byteLength": 70656,
      "target": 34963
    },
    {
      "buffer": 0,
      "byteOffset": 703936,
      "byteLength": 420216,
      "target": 34962,
      "byteStride": 12
    },
    {
      "buffer": 0,
      "byteOffset": 1124152,
      "byteLength": 420216,
      "target": 34962,
      "byteStride": 12
    },
    {
      "buffer": 0,
      "byteOffset": 1544368,
      "byteLength": 280144,
      "target": 34962,
      "byteStride": 8
    },
    {
      "buffer": 0,
      "byteOffset": 1824512,
      "byteLength": 124776,
      "target": 34963
    },
    {
      "buffer": 0,
      "byteOffset": 1949288,
      "byteLength": 151008,
      "target": 34962,
      "byteStride": 12
    },
    {
      "buffer": 0,
      "byteOffset": 2100296,
      "byteLength": 151008,
      "target": 34962,
      "byteStride": 12
    },
    {
      "buffer": 0,
      "byteOffset": 2251304,
      "byteLength": 100672,
      "target": 34962,
      "byteStride": 8
    },
    {
      "buffer": 0,
      "byteOffset": 2351976,
      "byteLength": 45576,
      "target": 34963
    }
  ],
  "buffers": [
    {
      "byteLength": 2397552,
      "uri": "data:application/octet-stream;base64,"
    }
  ],
  "accessors": [
    {
      "bufferView": 0,
      "componentType": 5126,
      "count": 19790,
      "max": [
        1.3286441564559937,
        0.04999999701976776,
        0.2191503643989563
      ],
      "min": [
        -0.06644532084465027,
        -0.04999999701976776,
        -0.6283999085426331
      ],
      "type": "VEC3"
    },
    {
      "bufferView": 1,
      "componentType": 5126,
      "count": 19790,
      "max": [
        0.999969482421875,
        1,
        0.999969482421875
      ],
      "min": [
        -0.999969482421875,
        -1,
        -0.999969482421875
      ],
      "type": "VEC3"
    },
    {
      "bufferView": 2,
      "componentType": 5126,
      "count": 19790,
      "max": [
        1,
        1
      ],
      "min": [
        0,
        0
      ],
      "type": "VEC2"
    },
    {
      "bufferView": 3,
      "componentType": 5123,
      "count": 35328,
      "max": [
        19789
      ],
      "min": [
        0
      ],
      "type": "SCALAR"
    },
    {
      "bufferView": 4,
      "componentType": 5126,
      "count": 35018,
      "max": [
        2.6418936252593994,
        0.04999999701976776,
        0.18963941931724548
      ],
      "min": [
        -0.05597420409321785,
        -0.04999999701976776,
        -0.5612096190452576
      ],
      "type": "VEC3"
    },
    {
      "bufferView": 5,
      "componentType": 5126,
      "count": 35018,
      "max": [
        0.999969482421875,
        1,
        0.999969482421875
      ],
      "min": [
        -1,
        -1,
        -0.999969482421875
      ],
      "type": "VEC3"
    },
    {
      "bufferView": 6,
      "componentType": 5126,
      "count": 35018,
      "max": [
        1,
        1
      ],
      "min": [
        0,
        0
      ],
      "type": "VEC2"
    },
    {
      "bufferView": 7,
      "componentType": 5123,
      "count": 62388,
      "max": [
        35017
      ],
      "min": [
        0
      ],
      "type": "SCALAR"
    },
    {
      "bufferView": 8,
      "componentType": 5126,
      "count": 12584,
      "max": [
        0.781526505947113,
        0.05000000074505806,
        0.10571266710758209
      ],
      "min": [
        -0.10050718486309052,
        -0.05000000074505806,
        -0.6004769206047058
      ],
      "type": "VEC3"
    },
    {
      "bufferView": 9,
      "componentType": 5126,
      "count": 12584,
      "max": [
        0.999969482421875,
        1,
        0.999969482421875
      ],
      "min": [
        -0.999969482421875,
        -1,
        -1
      ],
      "type": "VEC3"
    },
    {
      "bufferView": 10,
      "componentType": 5126,
      "count": 12584,
      "max": [
        1,
        1
      ],
      "min": [
        0,
        0
      ],
      "type": "VEC2"
    },
    {
      "bufferView": 11,
      "componentType": 5123,
      "count": 22788,
      "max": [
        12583
      ],
      "min": [
        0
      ],
      "type": "SCALAR"
    }
  ],
  "materials": [
    {
      "pbrMetallicRoughness": {
        "baseColorFactor": [
          0.0056053949519991875,
          0.0047769551165401936,
          0.0056053935550153255,
          1
        ],
        "metallicFactor": 0,
        "roughnessFactor": 0.5
      },
      "doubleSided": true,
      "name": "plane black"
    }
  ],
  "meshes": [
    {
      "primitives": [
        {
          "mode": 4,
          "attributes": {
            "POSITION": 0,
            "NORMAL": 1,
            "TEXCOORD_0": 2
          },
          "indices": 3,
          "material": 0
        }
      ]
    },
    {
      "primitives": [
        {
          "mode": 4,
          "attributes": {
            "POSITION": 4,
            "NORMAL": 5,
            "TEXCOORD_0": 6
          },
          "indices": 7,
          "material": 0
        }
      ]
    },
    {
      "primitives": [
        {
          "mode": 4,
          "attributes": {
            "POSITION": 8,
            "NORMAL": 9,
            "TEXCOORD_0": 10
          },
          "indices": 11,
          "material": 0
        }
      ]
    }
  ]
}